HIERARCHY
ROOT Hips
{
	OFFSET 53.768200 -14.844514 85.518097
	CHANNELS 6 Xposition Yposition Zposition Xrotation Yrotation Zrotation
	JOINT spine
	{
		OFFSET 0.000000 -0.367607 6.392601
		CHANNELS 3 Xrotation Yrotation Zrotation
		JOINT spine1
		{
			OFFSET 0.000000 -0.000001 9.176109
			CHANNELS 3 Xrotation Yrotation Zrotation
			JOINT spine2
			{
				OFFSET 0.000000 -0.000002 8.792381
				CHANNELS 3 Xrotation Yrotation Zrotation
				JOINT Neck
				{
					OFFSET 0.000000 -1.076242 22.573692
					CHANNELS 3 Xrotation Yrotation Zrotation
					JOINT Head
					{
						OFFSET 0.000000 -0.000002 6.820114
						CHANNELS 3 Xrotation Yrotation Zrotation
						End Site
						{
							OFFSET 0.000000 5.444267 16.508499
						}
					}
				}
				JOINT RightShoulder
				{
					OFFSET -3.702209 0.515507 9.495087
					CHANNELS 3 Xrotation Yrotation Zrotation
					JOINT RightArm
					{
						OFFSET 0.000000 -0.000003 12.453697
						CHANNELS 3 Xrotation Yrotation Zrotation
						JOINT RightArmRoll
						{
							OFFSET 0.000000 -0.000001 6.286865
							CHANNELS 3 Xrotation Yrotation Zrotation
							JOINT RightForeArm
							{
								OFFSET 0.000000 -0.000003 18.311401
								CHANNELS 3 Xrotation Yrotation Zrotation
								JOINT RightForeArmRoll
								{
									OFFSET 0.000000 -0.000001 7.054825
									CHANNELS 3 Xrotation Yrotation Zrotation
									JOINT RightHand
									{
										OFFSET 0.000000 -0.000002 14.157501
										CHANNELS 3 Xrotation Yrotation Zrotation
										End Site
										{
											OFFSET 0.000000 0.000000 0.100006
										}
									}
								}
							}
						}
					}
				}
				JOINT LeftShoulder
				{
					OFFSET 3.702209 0.515507 9.495087
					CHANNELS 3 Xrotation Yrotation Zrotation
					JOINT LeftArm
					{
						OFFSET 0.000000 -0.000003 12.453697
						CHANNELS 3 Xrotation Yrotation Zrotation
						JOINT LeftArmRoll
						{
							OFFSET 0.000000 -0.000001 6.286865
							CHANNELS 3 Xrotation Yrotation Zrotation
							JOINT LeftForeArm
							{
								OFFSET 0.000000 -0.000003 18.311401
								CHANNELS 3 Xrotation Yrotation Zrotation
								JOINT LeftForeArmRoll
								{
									OFFSET 0.000000 -0.000001 7.054825
									CHANNELS 3 Xrotation Yrotation Zrotation
									JOINT LeftHand
									{
										OFFSET 0.000000 -0.000002 14.157501
										CHANNELS 3 Xrotation Yrotation Zrotation
										End Site
										{
											OFFSET 0.000000 0.000000 0.100006
										}
									}
								}
							}
						}
					}
				}
			}
		}
	}
	JOINT RightUpLeg
	{
		OFFSET -5.666161 0.871611 -1.039032
		CHANNELS 3 Xrotation Yrotation Zrotation
		JOINT RightUpLegRoll
		{
			OFFSET 0.000000 -0.000003 16.600502
			CHANNELS 3 Xrotation Yrotation Zrotation
			JOINT RightLeg
			{
				OFFSET 0.000000 0.000003 -20.557198
				CHANNELS 3 Xrotation Yrotation Zrotation
				JOINT RightLegRoll
				{
					OFFSET 0.000000 -0.000003 20.624397
					CHANNELS 3 Xrotation Yrotation Zrotation
					JOINT RightFoot
					{
						OFFSET 0.000000 -0.000003 17.166405
						CHANNELS 3 Xrotation Yrotation Zrotation
						JOINT RightToeBase
						{
							OFFSET 0.000000 -0.000003 14.350204
							CHANNELS 3 Xrotation Yrotation Zrotation
							End Site
							{
								OFFSET 0.006081 0.801060 6.949707
							}
						}
					}
				}
			}
		}
	}
	JOINT LeftUpLeg
	{
		OFFSET 5.666161 0.871611 -1.039032
		CHANNELS 3 Xrotation Yrotation Zrotation
		JOINT LeftUpLegRoll
		{
			OFFSET 0.000000 -0.000003 16.600601
			CHANNELS 3 Xrotation Yrotation Zrotation
			JOINT LeftLeg
			{
				OFFSET 0.000000 -0.000004 20.557098
				CHANNELS 3 Xrotation Yrotation Zrotation
				JOINT LeftLegRoll
				{
					OFFSET 0.000000 -0.000003 20.815094
					CHANNELS 3 Xrotation Yrotation Zrotation
					JOINT LeftFoot
					{
						OFFSET 0.000000 -0.000003 16.975693
						CHANNELS 3 Xrotation Yrotation Zrotation
						JOINT LeftToeBase
						{
							OFFSET 0.000000 -0.000003 14.350204
							CHANNELS 3 Xrotation Yrotation Zrotation
							End Site
							{
								OFFSET -0.027260 0.801059 6.949707
							}
						}
					}
				}
			}
		}
	}
}
MOTION
Frames: 7
Frame Time: 0.041667
54.174400 -13.902516 85.666199 -1.442694 0.130481 -2.046964 -1.559058 0.528867 -0.410225 0.888038 1.064683 -0.822563 2.533159 1.054749 -0.835254 11.533608 -4.590737 -1.723565 -0.361507 1.564839 -1.361327 1.449875 -67.968811 0.554672 -54.366352 -110.333448 -46.394767 -0.000001 0.000000 -0.000003 4.770744 -14.323760 0.223249 -0.000000 0.000007 -3.000001 -5.000207 -7.998753 0.000168 0.900293 56.655753 -1.368496 -40.274917 114.014647 34.979420 -0.000003 -0.000006 0.000005 3.082953 9.778540 0.305680 -0.000001 0.000007 2.999990 -5.000249 7.998811 -0.000156 -0.258999 -172.143088 1.587023 -179.999991 0.000006 -1.152999 174.431297 -1.619326 -0.518860 0.000001 0.000001 0.015536 68.812387 6.801755 2.386798 25.456957 -7.355616 0.000001 1.858235 173.715275 -0.167024 -0.000005 -0.000004 -1.166770 -6.175180 0.481247 0.480309 -0.000006 -0.000003 -0.147627 70.702894 -6.896091 -1.998775 25.569824 7.349565 -0.162486 
54.173100 -13.893117 85.667999 -1.440805 0.133127 -2.044852 -1.559408 0.529075 -0.410232 0.886748 1.064963 -0.821877 2.531870 1.055039 -0.834565 11.530844 -4.593527 -1.723380 -0.354405 1.566960 -1.360698 1.439712 -67.967506 0.543458 -54.359949 -110.335272 -46.391120 -0.000001 -0.000001 -0.000003 4.770605 -14.325359 0.223452 0.000003 0.000007 -3.000000 -5.000208 -7.998751 0.000168 0.894068 56.652195 -1.361581 -40.267442 114.013513 34.970295 0.000001 -0.000005 0.000004 3.083817 9.777536 0.305545 -0.000000 0.000007 2.999992 -5.000249 7.998811 -0.000156 -0.261241 -172.152077 1.576247 -179.999991 0.000006 -1.152999 174.431611 -1.609375 -0.518879 0.000000 0.000001 0.015548 68.816219 6.799488 2.391536 25.456959 -7.355613 0.000000 1.854670 173.710261 -0.169399 -0.000005 -0.000004 -1.166791 -6.174828 0.481455 0.480280 -0.000006 -0.000002 -0.147621 70.701938 -6.896087 -1.998834 25.569114 7.349571 -0.161728 
54.168301 -13.894214 85.663490 -1.438786 0.135845 -2.042789 -1.559697 0.529311 -0.410241 0.885529 1.065343 -0.821161 2.530650 1.055420 -0.833844 11.526795 -4.597514 -1.723267 -0.346216 1.570011 -1.360064 1.427440 -67.966420 0.529872 -54.354065 -110.337342 -46.388435 -0.000001 -0.000001 -0.000003 4.770311 -14.327160 0.223661 0.000000 0.000007 -3.000001 -5.000208 -7.998751 0.000168 0.886757 56.647844 -1.353493 -40.260547 114.012564 34.961963 -0.000003 -0.000005 0.000004 3.084564 9.776340 0.305420 -0.000001 0.000007 2.999990 -5.000250 7.998810 -0.000156 -0.263643 -172.162076 1.565055 -179.999991 0.000006 -1.152999 174.431885 -1.599423 -0.518912 0.000001 0.000001 0.015566 68.820112 6.797117 2.396554 25.456952 -7.355614 0.000000 1.850917 173.705262 -0.171835 -0.000005 -0.000004 -1.166830 -6.174639 0.481692 0.480238 -0.000006 -0.000002 -0.147612 70.701194 -6.896080 -1.998880 25.568511 7.349564 -0.160990 
54.169601 -13.901717 85.666389 -1.436673 0.138615 -2.040753 -1.559946 0.529568 -0.410253 0.884359 1.065783 -0.820423 2.529480 1.055871 -0.833103 11.521757 -4.602330 -1.723238 -0.337272 1.573693 -1.359407 1.413689 -67.965334 0.514619 -54.346709 -110.340313 -46.384399 -0.000002 -0.000001 -0.000003 4.769898 -14.329064 0.223871 0.000001 0.000006 -3.000000 -5.000205 -7.998753 0.000168 0.878682 56.642807 -1.344578 -40.253863 114.011669 34.954022 -0.000001 -0.000006 0.000004 3.085235 9.774996 0.305304 0.000002 0.000007 2.999990 -5.000250 7.998810 -0.000156 -0.266163 -172.171078 1.553553 -179.999991 0.000005 -1.152999 174.432144 -1.589471 -0.518932 0.000000 0.000001 0.015589 68.824114 6.794685 2.401751 25.456960 -7.355613 0.000000 1.847013 173.699251 -0.174344 -0.000005 -0.000004 -1.166870 -6.174558 0.481946 0.480186 -0.000006 -0.000002 -0.147601 70.700442 -6.896079 -1.998828 25.567801 7.349562 -0.160219 
54.173599 -13.898218 85.664398 -1.434514 0.141414 -2.038739 -1.560177 0.529835 -0.410266 0.883218 1.066274 -0.819675 2.528340 1.056361 -0.832350 11.516126 -4.607626 -1.723244 -0.327888 1.577754 -1.358752 1.399090 -67.964262 0.498412 -54.341518 -110.342696 -46.382876 -0.000001 -0.000002 -0.000003 4.769413 -14.331065 0.224083 0.000002 0.000006 -3.000001 -5.000207 -7.998752 0.000168 0.870172 56.637366 -1.335193 -40.246091 114.011676 34.944918 -0.000002 -0.000005 0.000004 3.085862 9.773580 0.305192 0.000002 0.000007 2.999989 -5.000250 7.998810 -0.000156 -0.268746 -172.181078 1.541897 -179.999991 0.000005 -1.152999 174.432363 -1.578527 -0.518857 0.000001 0.000001 0.015613 68.828103 6.792249 2.406949 25.456962 -7.355613 0.000001 1.843036 173.694238 -0.176846 -0.000005 -0.000005 -1.166920 -6.174550 0.482211 0.480130 -0.000006 -0.000002 -0.147589 70.699800 -6.896074 -1.998864 25.567095 7.349568 -0.159461 
54.165901 -13.899219 85.666389 -1.432344 0.144220 -2.036724 -1.560398 0.530108 -0.410281 0.882083 1.066774 -0.818923 2.527210 1.056871 -0.831594 11.510295 -4.613043 -1.723271 -0.318400 1.581906 -1.358100 1.384279 -67.963189 0.481969 -54.334513 -110.345818 -46.379413 -0.000001 0.000000 -0.000003 4.768921 -14.333068 0.224295 0.000000 0.000007 -3.000000 -5.000210 -7.998752 0.000168 0.861557 56.631923 -1.325698 -40.238335 114.011669 34.935881 -0.000002 -0.000005 0.000005 3.086466 9.772149 0.305080 0.000001 0.000007 2.999990 -5.000250 7.998811 -0.000157 -0.271349 -172.191077 1.530191 -179.999991 0.000005 -1.152999 174.432581 -1.567569 -0.518780 0.000001 0.000001 0.015639 68.832181 6.789789 2.412036 25.456957 -7.355615 0.000002 1.839039 173.689224 -0.179354 -0.000005 -0.000004 -1.166970 -6.174550 0.482480 0.480071 -0.000005 -0.000002 -0.147576 70.699145 -6.896038 -1.998899 25.566382 7.349565 -0.158689 
54.167999 -13.898520 85.667091 -1.430195 0.147012 -2.034710 -1.560636 0.530372 -0.410294 0.880934 1.067254 -0.818177 2.526061 1.057352 -0.830843 11.504859 -4.618219 -1.723269 -0.309124 1.585877 -1.357445 1.369902 -67.962213 0.466008 -54.329322 -110.348208 -46.377855 0.000000 0.000001 -0.000003 4.768466 -14.334972 0.224501 0.000004 0.000007 -3.000000 -5.000207 -7.998750 0.000168 0.853161 56.626581 -1.316441 -40.230569 114.011669 34.926743 -0.000000 -0.000006 0.000005 3.087091 9.770744 0.304969 0.000001 0.000007 2.999990 -5.000247 7.998811 -0.000157 -0.273910 -172.200079 1.518574 -179.999991 0.000005 -1.152999 174.432841 -1.556625 -0.518704 0.000000 0.000001 0.015663 68.836176 6.787355 2.417236 25.456957 -7.355614 0.000001 1.835076 173.684225 -0.181847 -0.000005 -0.000005 -1.167020 -6.174520 0.482744 0.480015 -0.000006 -0.000002 -0.147564 70.698421 -6.896066 -1.998848 25.565682 7.349572 -0.157930 
